# xmcd
#
# Track frame offsets:
#       150
#       14694
#       27744
#       40768
#       55434
#       67902
#       79879
#       95598
#       109448
#       122582
#       135070
#       150465
#       165463
#       178646
#
# Disc length: 2635 seconds
#
# Revision: 0
# Processed by: cddbd v1.4PL0 Copyright (c) Steve Scherf et al.
# Submitted via: WhereIsIt 3.26
#
DISCID=b40a490e
DTITLE=Savannah - New Road
DYEAR=1900
DGENRE=
TTITLE0=the last time
TTITLE1=paperback writer
TTITLE2=I'm a believer
TTITLE3=to love somebody
TTITLE4=eight days a week
TTITLE5=love's gonna live here
TTITLE6=travelling light
TTITLE7=little sister
TTITLE8=dream baby
TTITLE9=that's alright mama
TTITLE10=crying in the rain
TTITLE11=the wanderer
TTITLE12=do you wanna dance
TTITLE13=sweet dreams
EXTD=
EXTT0=
EXTT1=
EXTT2=
EXTT3=
EXTT4=
EXTT5=
EXTT6=
EXTT7=
EXTT8=
EXTT9=
EXTT10=
EXTT11=
EXTT12=
EXTT13=
PLAYORDER=
